<svg xmlns="http://www.w3.org/2000/svg" viewBox="0 0 357.89331 96.510005" width="357.893" height="96.51"><path d="M48.522 91.51c-.67 0-1.33-.12-1.97-.36l-25.57-9.8c-1.95-.74-3.32-2.57-3.51-4.64l-5.45-60.72c-.14-1.53.38-3.07 1.42-4.2a5.543 5.543 0 0 1 4.06-1.79h62.04a5.505 5.505 0 0 1 5.48 5.99l-5.45 60.72a5.533 5.533 0 0 1-3.51 4.64l-25.57 9.79c-.64.24-1.3.37-1.97.37zM17.502 15c-.18 0-.3.09-.37.16a.46.46 0 0 0-.13.38l5.45 60.72c.02.19.14.35.32.42l25.57 9.79c.12.05.24.05.36 0l25.57-9.79c.18-.07.3-.23.32-.42l5.45-60.72a.46.46 0 0 0-.13-.38.514.514 0 0 0-.37-.16z" fill="#4fc3f7"/><g fill="#03a9f4"><path d="M41.952 63.83c-.64 0-1.28-.24-1.77-.73l-12.36-12.37c-.98-.98-.98-2.56 0-3.54l12.79-12.79c.98-.98 2.56-.98 3.54 0s.98 2.56 0 3.54l-11.03 11.02 10.6 10.6a2.499 2.499 0 0 1-1.77 4.27zM55.092 63.83a2.499 2.499 0 0 1-1.77-4.27l10.6-10.6-11.02-11.02c-.98-.98-.98-2.56 0-3.54s2.56-.98 3.54 0l12.78 12.79c.98.98.98 2.56 0 3.54L56.862 63.1c-.49.49-1.13.73-1.77.73z"/></g><text style="line-height:1.25;-inkscape-font-specification:'blue highway'" x="92.671" y="66.327" font-weight="400" font-size="59.053" font-family="blue highway" letter-spacing="0" word-spacing="0" stroke-width="1.476"><tspan x="92.671" y="66.327" style="-inkscape-font-specification:'Alte DIN 1451 Mittelschrift gepraegt'" font-family="Alte DIN 1451 Mittelschrift gepraegt" fill="#757575">renderdoc</tspan></text></svg>